<?xml version="1.0" encoding="utf-8"?>
<!-- Generator: Adobe Illustrator 26.3.1, SVG Export Plug-In . SVG Version: 6.00 Build 0)  -->
<svg version="1.1" id="_イヤー_2" xmlns="http://www.w3.org/2000/svg" xmlns:xlink="http://www.w3.org/1999/xlink" x="0px"
	 y="0px" viewBox="0 0 684.4 117.3" style="enable-background:new 0 0 684.4 117.3;" xml:space="preserve">
<style type="text/css">
	.st0{enable-background:new    ;}
</style>
<g id="_イヤー_1-2">
	<g class="st0">
		<path d="M28.7,44.2H95c1.6,0,2.2,0.8,1.9,2.4l-2.6,14.9c-0.3,1.6-1.2,2.4-2.8,2.4H48.4c-1.7,0-2.6,0.8-2.9,2.4l-5.2,29.6
			c-0.3,1.6-1.3,2.4-2.9,2.4H19.2c-1.7,0-2.3-0.8-2.1-2.4l8.6-49.2C26.1,45,27.1,44.2,28.7,44.2z M55,12.2L51.5,32
			c-0.3,1.6-1.3,2.4-2.9,2.4H30.5c-1.7,0-2.3-0.8-2.1-2.4l3.5-19.8c0.3-1.6,1.3-2.4,2.9-2.4h18.1C54.6,9.8,55.3,10.6,55,12.2z"/>
	</g>
	<g class="st0">
		<path d="M126.3,14.7h18.1c1.7,0,2.3,0.8,2.1,2.5l-6,34.5c-0.3,1.6-1.3,2.4-2.9,2.4h-18.1c-1.7,0-2.3-0.8-2.1-2.4l6-34.5
			C123.6,15.5,124.6,14.7,126.3,14.7z M178.1,14.7h18.4c1.7,0,2.3,0.8,2.1,2.5l-13.9,78.6c-0.3,1.6-1.2,2.4-2.8,2.4H140
			c-1.6,0-2.2-0.8-1.9-2.4l2.6-14.8c0.3-1.7,1.2-2.5,2.8-2.5h18.5c1.7,0,2.6-0.8,2.9-2.4l10.4-59C175.5,15.5,176.4,14.7,178.1,14.7z
			"/>
		<path d="M225.9,14.7h83.4c1.7,0,2.3,0.8,2.1,2.5L308.8,32c-0.3,1.6-1.3,2.4-2.9,2.4h-83.4c-1.7,0-2.3-0.8-2.1-2.4l2.6-14.8
			C223.3,15.5,224.3,14.7,225.9,14.7z M245.7,44.2h58.4c1.7,0,2.3,0.8,2.1,2.4l-2.6,14.9c-0.3,1.6-1.3,2.4-2.9,2.4h-34.5
			c-1.7,0-2.2,0.8-1.6,2.3l4.1,10.2c0.6,1.5,1.8,2.3,3.3,2.3h13.3c1.7,0,2.3,0.8,2.1,2.5l-2.6,14.8c-0.3,1.6-1.3,2.4-2.9,2.4h-25.6
			c-1.7,0-2.8-0.8-3.5-2.3l-12.1-29.8c-0.6-1.5-0.8-3.1-0.5-4.6l2.7-14.9C243.2,45,244.1,44.2,245.7,44.2z"/>
	</g>
	<g class="st0">
		<path d="M390.5,19.7h27.3c1.7,0,2.3,0.8,2.1,2.4l-2.6,14.8c-0.3,1.7-1.3,2.5-2.9,2.5h-60.5c-1.7,0-2.6,0.8-2.8,2.4l-3.6,19.8
			c-0.3,1.6-1.2,2.4-2.8,2.4H328c-1.7,0-2.3-0.8-2.1-2.4l7-39.4c0.3-1.6,1.2-2.4,2.8-2.4h27.8c1.7,0,2.6-0.8,2.9-2.5l0.9-5
			c0.3-1.6,1.3-2.4,2.9-2.4h17.2c1.6,0,2.2,0.8,1.9,2.4l-0.9,5C388.2,18.8,388.9,19.7,390.5,19.7z M396.4,49.1h17.2
			c1.7,0,2.3,0.8,2.1,2.4l-7.8,44.3c-0.3,1.6-1.3,2.4-2.9,2.4h-49.4c-1.7,0-2.3-0.8-2.1-2.4l2.7-14.8c0.2-1.7,1.2-2.5,2.8-2.5h27.3
			c1.6,0,2.5-0.8,2.8-2.4l4.4-24.6C393.8,49.9,394.8,49.1,396.4,49.1z"/>
	</g>
	<g class="st0">
		<path d="M501.2,82.5c1.6,0,2.3,0.8,2.1,2.4l-1.9,10.9c-0.3,1.6-1.3,2.4-2.9,2.4h-65.8c-1.7,0-2.3-0.8-2.1-2.4l1.9-10.9
			c0.3-1.6,1.3-2.4,2.9-2.4h21.2c1.7,0,2.6-0.8,2.9-2.5l4-22.7c0.3-1.6,1.2-2.4,2.8-2.4H480c1.7,0,2.3,0.8,2.1,2.4L478,80
			c-0.3,1.7,0.4,2.5,1.9,2.5H501.2z M448.1,46.7c-1.7,0-2.3-0.8-2.1-2.5l1.9-10.8c0.3-1.7,1.3-2.5,2.9-2.5h50.2
			c1.7,0,2.3,0.8,2.1,2.5l-1.9,10.8c-0.2,1.7-1.2,2.5-2.8,2.5H448.1z"/>
	</g>
	<g class="st0">
		<path d="M607,25.1c1.7,0,2.3,0.8,2.1,2.4l-0.8,4.5c-0.3,1.6-1.3,2.4-2.9,2.4h-78.5c-1.7,0-2.3-0.8-2.1-2.4l2.6-14.8
			c0.3-1.7,1.3-2.5,2.9-2.5h57.6c1.7,0,2.3,0.8,2.1,2.5l-1.2,6.4c-0.1,1,0.3,1.5,1.3,1.5H607z M603.6,44.2c1.7,0,2.3,0.8,2.1,2.4
			L597,95.8c-0.3,1.6-1.3,2.4-2.9,2.4h-44.2c-1.7,0-2.3-0.8-2.1-2.4l2.6-14.8c0.3-1.7,1.3-2.5,2.9-2.5h21.1c1.7,0,2.6-0.8,2.9-2.4
			l5.2-29.6c0.3-1.6,1.3-2.4,2.9-2.4H603.6z M594.1,22.1c-0.9,0-1.3-0.5-1.2-1.5l2.5-14.3c0.2-1,0.8-1.5,1.7-1.5h5.7
			c0.9,0,1.3,0.5,1.2,1.5l-2.5,14.3c-0.2,1-0.8,1.5-1.7,1.5H594.1z M615.4,4.9c0.9,0,1.3,0.5,1.2,1.5l-2.5,14.3
			c-0.2,1-0.8,1.5-1.7,1.5h-5.7c-0.9,0-1.3-0.5-1.2-1.5l2.5-14.3c0.2-1,0.8-1.5,1.7-1.5H615.4z"/>
	</g>
</g>
</svg>
